<svg width="50" height="50" viewBox="0 0 50 50" fill="none" xmlns="http://www.w3.org/2000/svg">
<path d="M35.4166 4.16675H14.5833C8.83033 4.16675 4.16663 8.83045 4.16663 14.5834V35.4167C4.16663 41.1697 8.83033 45.8334 14.5833 45.8334H35.4166C41.1696 45.8334 45.8333 41.1697 45.8333 35.4167V14.5834C45.8333 8.83045 41.1696 4.16675 35.4166 4.16675Z" stroke="white" stroke-width="2" stroke-linecap="round" stroke-linejoin="round"/>
<path d="M33.3332 23.6876C33.5904 25.4215 33.2942 27.1923 32.4869 28.7481C31.6796 30.3039 30.4023 31.5656 28.8366 32.3536C27.271 33.1417 25.4967 33.416 23.7661 33.1375C22.0356 32.859 20.4369 32.042 19.1975 30.8026C17.9581 29.5631 17.141 27.9645 16.8626 26.2339C16.5841 24.5034 16.8584 22.7291 17.6464 21.1634C18.4345 19.5978 19.6961 18.3204 21.252 17.5131C22.8078 16.7059 24.5786 16.4097 26.3124 16.6668C28.081 16.9291 29.7184 17.7532 30.9826 19.0174C32.2469 20.2817 33.071 21.9191 33.3332 23.6876Z" stroke="white" stroke-width="2" stroke-linecap="round" stroke-linejoin="round"/>
<path d="M36.4584 13.5417H36.479" stroke="white" stroke-width="2" stroke-linecap="round" stroke-linejoin="round"/>
</svg>
