<svg width="50" height="50" viewBox="0 0 50 50" fill="none" xmlns="http://www.w3.org/2000/svg">
<path d="M46.9584 13.3749C46.7109 12.3862 46.2069 11.4803 45.4972 10.7487C44.7876 10.0171 43.8974 9.48572 42.9167 9.20825C39.3333 8.33325 25 8.33325 25 8.33325C25 8.33325 10.6667 8.33325 7.08335 9.29159C6.10261 9.56905 5.21246 10.1004 4.50282 10.832C3.79317 11.5636 3.28915 12.4695 3.04168 13.4583C2.38587 17.0948 2.06509 20.7839 2.08334 24.4791C2.05997 28.2021 2.38078 31.9193 3.04168 35.5832C3.31451 36.5413 3.82982 37.4127 4.53781 38.1134C5.24581 38.8141 6.12255 39.3204 7.08335 39.5832C10.6667 40.5416 25 40.5416 25 40.5416C25 40.5416 39.3333 40.5416 42.9167 39.5832C43.8974 39.3058 44.7876 38.7744 45.4972 38.0428C46.2069 37.3112 46.7109 36.4053 46.9584 35.4166C47.6091 31.8074 47.9299 28.1464 47.9167 24.4791C47.9401 20.7561 47.6193 17.0389 46.9584 13.3749V13.3749Z" stroke="white" stroke-width="2" stroke-linecap="round" stroke-linejoin="round"/>
<path d="M20.3125 31.2917L32.2917 24.4792L20.3125 17.6667V31.2917Z" stroke="white" stroke-width="2" stroke-linecap="round" stroke-linejoin="round"/>
</svg>
